<?xml version="1.0" encoding="UTF-8" standalone="no"?>
<!-- Created with Inkscape (http://www.inkscape.org/) -->

<svg
   width="129.26239mm"
   height="236.06921mm"
   viewBox="0 0 129.26239 236.06921"
   version="1.1"
   id="svg1"
   xmlns:inkscape="http://www.inkscape.org/namespaces/inkscape"
   xmlns:sodipodi="http://sodipodi.sourceforge.net/DTD/sodipodi-0.dtd"
   xmlns:xlink="http://www.w3.org/1999/xlink"
   xmlns="http://www.w3.org/2000/svg"
   xmlns:svg="http://www.w3.org/2000/svg">
  <sodipodi:namedview
     id="namedview1"
     pagecolor="#505050"
     bordercolor="#eeeeee"
     borderopacity="1"
     inkscape:showpageshadow="0"
     inkscape:pageopacity="0"
     inkscape:pagecheckerboard="0"
     inkscape:deskcolor="#505050"
     inkscape:document-units="mm"
     inkscape:export-bgcolor="#ffffff00">
    <inkscape:page
       x="-7.9075669e-14"
       y="0"
       width="129.26241"
       height="236.06921"
       id="page2"
       margin="0"
       bleed="0" />
  </sodipodi:namedview>
  <defs
     id="defs1">
    <linearGradient
       id="linearGradient8"
       inkscape:collect="always">
      <stop
         style="stop-color:#ffffff;stop-opacity:1;"
         offset="0.50907415"
         id="stop8" />
      <stop
         style="stop-color:#dcdcdc;stop-opacity:1;"
         offset="1"
         id="stop9" />
    </linearGradient>
    <radialGradient
       inkscape:collect="always"
       xlink:href="#linearGradient8"
       id="radialGradient9"
       cx="96.368881"
       cy="143.33337"
       fx="96.368881"
       fy="143.33337"
       r="64.63121"
       gradientTransform="matrix(1.404576,-0.00708464,0.00906489,1.7971682,-40.287837,-115.40945)"
       gradientUnits="userSpaceOnUse" />
  </defs>
  <g
     inkscape:label="Layer 1"
     inkscape:groupmode="layer"
     id="layer1"
     transform="translate(-32.081754,-26.040127)">
    <path
       d="m 32.081757,262.10933 h 6.803285 c 0,0 4.028875,-4.79494 6.803285,-4.79494 2.77441,0 6.803285,4.79494 6.803285,4.79494 h 6.803285 c 0,0 4.028876,-4.79494 6.803285,-4.79494 2.77441,0 6.803285,4.79494 6.803285,4.79494 h 6.803285 c 0,0 4.028876,-4.79494 6.803285,-4.79494 2.77441,0 6.803285,4.79494 6.803285,4.79494 h 6.803288 c 0,0 4.02887,-4.79494 6.80328,-4.79494 2.77441,0 6.80329,4.79494 6.80329,4.79494 h 6.80328 c 0,0 4.02888,-4.79494 6.80329,-4.79494 2.77441,0 6.80328,4.79494 6.80328,4.79494 h 6.80329 c 0,0 4.02887,-4.79494 6.80328,-4.79494 2.77441,0 6.80329,4.79494 6.80329,4.79494 l 6.80328,-0.16344 V 26.040125 h -6.80328 c 0,0 -4.09019,4.468069 -6.80329,4.468069 -2.7131,0 -6.80328,-4.468069 -6.80328,-4.468069 h -6.80329 c 0,0 -4.09018,4.468069 -6.80328,4.468069 -2.71311,0 -6.80329,-4.468069 -6.80329,-4.468069 h -6.80328 c 0,0 -4.09019,4.468069 -6.80329,4.468069 -2.7131,0 -6.80328,-4.468069 -6.80328,-4.468069 h -6.803288 c 0,0 -4.090182,4.468069 -6.803285,4.468069 -2.713102,0 -6.803285,-4.468069 -6.803285,-4.468069 h -6.803285 c 0,0 -4.090182,4.468069 -6.803285,4.468069 -2.713102,0 -6.803285,-4.468069 -6.803285,-4.468069 h -6.803285 c 0,0 -4.090182,4.468069 -6.803285,4.468069 -2.713102,0 -6.803285,-4.468069 -6.803285,-4.468069 h -6.803285 z"
       style="fill:url(#radialGradient9);stroke:none;stroke-width:0.44657;stroke-opacity:1"
       id="path6"
       sodipodi:nodetypes="ccsccsccsccsccsccsccccsccsccsccsccsccsccc" />
  </g>
</svg>
